<?xml version="1.0" encoding="utf-8"?>
<!-- Generator: Adobe Illustrator 23.0.0, SVG Export Plug-In . SVG Version: 6.00 Build 0)  -->
<svg version="1.1" id="Layer_1" xmlns="http://www.w3.org/2000/svg" xmlns:xlink="http://www.w3.org/1999/xlink" x="0px" y="0px"
	 viewBox="0 0 341.22 125.22" style="enable-background:new 0 0 341.22 125.22;" xml:space="preserve">
<style type="text/css">
	.st0{fill-rule:evenodd;clip-rule:evenodd;fill:#0FD186;}
	.st1{fill:#FFFFFF;}
	.st2{fill:#0089FF;}
</style>
<path class="st0" d="M105.53,86.05c0,6.62-5.37,12-12,12H57.06c-6.63,0-12-5.37-12-12V49.57c0-6.63,5.37-12,12-12l36.48-6.01
	c6.63,0,12,5.37,12,12V86.05z"/>
<path class="st1" d="M84.54,62.61l-11.48-2.19c-4.67-0.88-7-2.74-7-5.58c0-2.19,1.13-3.9,3.4-5.14c1.9-1.02,4.02-1.53,6.37-1.53
	c4.83,0,9.59,1.97,14.27,5.91l6.48-7.99c-6.86-4.88-13.86-7.33-21.01-7.33c-5.61,0-10.35,1.46-14.22,4.38
	c-4.38,3.21-6.57,7.51-6.57,12.91c0,4.74,2.08,8.39,6.24,10.94c2.77,1.68,7.04,3.06,12.8,4.16l6.45,1.23c4.67,0.88,7,2.91,7,6.11
	c0,2.19-1.28,3.89-3.84,5.13c-2.05,1.02-4.28,1.53-6.7,1.53c-6.29,0-11.85-2.59-16.68-7.77l-7.79,7.88c7.29,6.2,15.24,9.3,23.85,9.3
	c5.98,0,11.08-1.46,15.31-4.38c4.74-3.28,7.11-7.76,7.11-13.45C98.55,69.07,93.88,64.36,84.54,62.61"/>
<path class="st2" d="M154.46,46.72v46.33h-10.24v-6.29h-0.17c-1.69,2.37-3.99,4.26-6.92,5.67c-2.93,1.41-5.86,2.12-8.8,2.12
	c-3.45,0-6.64-0.68-9.55-2.04s-5.41-3.28-7.51-5.76c-3.86-4.63-5.8-10.25-5.8-16.86c0-2.07,0.2-4.09,0.59-6.06
	c0.39-1.97,1.02-3.81,1.88-5.51c0.86-1.7,2.02-3.39,3.49-5.08c2.34-2.72,4.95-4.74,7.82-6.04c2.87-1.31,6.01-1.96,9.41-1.96
	c3.19,0,6.12,0.68,8.8,2.04c2.68,1.36,4.93,3.35,6.76,5.96v-6.53H154.46z M143.85,69.82c0-1.96-0.33-3.77-0.98-5.45
	c-0.65-1.67-1.56-3.12-2.73-4.35c-1.17-1.23-2.58-2.18-4.24-2.88c-1.66-0.69-3.45-1.04-5.38-1.04c-4.05,0-7.37,1.34-9.96,4.02
	c-2.59,2.68-3.89,6.08-3.89,10.19c0,3.76,1.35,6.93,4.03,9.51c2.69,2.59,5.91,3.88,9.66,3.88c2.61,0,4.95-0.6,7.01-1.82
	c2.07-1.21,3.66-2.87,4.79-4.98C143.28,74.8,143.85,72.44,143.85,69.82"/>
<path class="st2" d="M157.76,108.52v-61.8h10.16v6.04h0.21c3.37-5.01,8.33-7.51,14.86-7.51c3.48,0,6.58,0.59,9.29,1.77
	c2.71,1.18,5.22,3.1,7.53,5.74c1.31,1.33,2.46,2.95,3.47,4.84c1.01,1.89,1.75,3.89,2.23,5.98c0.47,2.09,0.71,4.21,0.71,6.33
	c0,3.24-0.56,6.34-1.67,9.31c-1.12,2.97-2.73,5.61-4.86,7.94c-2.12,2.32-4.62,4.14-7.49,5.45c-2.87,1.31-5.94,1.96-9.2,1.96
	c-5.91,0-10.56-2.18-13.96-6.53h-0.16v20.49H157.76z M181.81,56.11c-2.56,0-4.87,0.61-6.94,1.84c-2.07,1.22-3.7,2.9-4.88,5.02
	c-1.18,2.12-1.77,4.44-1.77,6.94c0,4.27,1.44,7.7,4.32,10.29c1.25,1.09,2.67,1.95,4.25,2.57c1.58,0.63,3.12,0.94,4.61,0.94
	c2.56,0,4.89-0.61,7-1.86c2.11-1.24,3.76-2.92,4.94-5.04c1.18-2.12,1.77-4.45,1.77-6.98c0-2.37-0.58-4.61-1.73-6.74
	c-1.16-2.12-2.76-3.82-4.8-5.08C186.54,56.74,184.28,56.11,181.81,56.11"/>
<path class="st2" d="M234.03,45.25c3.38,0,6.54,0.65,9.5,1.94c2.95,1.29,5.55,3.08,7.78,5.37c2.23,2.28,3.96,4.92,5.17,7.9
	c1.21,2.98,1.82,6.16,1.82,9.53c0,3.35-0.63,6.5-1.88,9.47c-1.25,2.97-3.05,5.61-5.37,7.92c-2.33,2.31-5,4.09-8.01,5.33
	c-3.01,1.24-6.18,1.86-9.5,1.86c-4.39,0-8.46-1.11-12.24-3.32c-3.77-2.22-6.77-5.22-8.99-9c-2.22-3.78-3.33-7.86-3.33-12.25
	c0-3.46,0.65-6.69,1.94-9.7s3.08-5.63,5.37-7.88c2.29-2.24,4.94-4,7.97-5.26C227.29,45.88,230.55,45.25,234.03,45.25 M233.54,56.11
	c-1.66,0-3.37,0.38-5.12,1.14c-1.75,0.76-3.23,1.79-4.42,3.1c-2.55,2.59-3.83,5.8-3.83,9.64c0,2.42,0.59,4.7,1.77,6.84
	c1.18,2.14,2.8,3.82,4.85,5.04c2.05,1.22,4.3,1.84,6.75,1.84c2.58,0,4.9-0.6,6.97-1.82c2.07-1.21,3.68-2.88,4.85-5
	c1.17-2.12,1.75-4.42,1.75-6.9c0-2.48-0.6-4.79-1.79-6.94c-1.2-2.15-2.84-3.84-4.93-5.08C238.3,56.73,236.02,56.11,233.54,56.11"/>
<polygon class="st2" points="260.73,92.69 260.73,66.51 273.66,66.51 273.66,69.08 263.26,69.08 263.26,78.25 273.66,78.25 
	273.66,80.84 263.26,80.84 263.26,92.69 "/>
<path class="st2" d="M278.24,70.59h-2.54v-4.08h2.54V70.59z M275.7,72.91h2.54v19.78h-2.54V72.91z"/>
<path class="st2" d="M280.5,72.91h2.46v2.25c0.78-0.9,1.68-1.56,2.71-2c1.02-0.43,2.2-0.65,3.52-0.65c1.45,0,2.74,0.27,3.88,0.81
	c1.13,0.54,2.03,1.31,2.69,2.32c0.45,0.71,0.78,1.54,0.98,2.49c0.2,0.95,0.3,2.36,0.3,4.22v10.34h-2.5V81.61
	c0-2.34-0.45-4.03-1.34-5.09c-0.89-1.05-2.33-1.58-4.29-1.58c-1.15,0-2.16,0.23-3.03,0.69c-0.87,0.46-1.56,1.12-2.06,1.99
	c-0.31,0.54-0.53,1.15-0.66,1.84c-0.13,0.69-0.19,1.89-0.19,3.61v9.62h-2.46V72.91z"/>
</svg>
