<?xml version="1.0" encoding="utf-8"?>
<!-- Generator: Adobe Illustrator 24.0.0, SVG Export Plug-In . SVG Version: 6.00 Build 0)  -->
<svg version="1.1" id="Layer_1" xmlns="http://www.w3.org/2000/svg" xmlns:xlink="http://www.w3.org/1999/xlink" x="0px" y="0px"
	 viewBox="0 0 831.3 220.9" style="enable-background:new 0 0 831.3 220.9;" xml:space="preserve">
<style type="text/css">
	.st0{fill:#0FD186;}
	.st1{fill:#0089FF;}
	.st2{fill:#442E26;}
	.st3{fill:none;}
</style>
<path class="st0" d="M175.5,104.6V34.4c0-19-15.4-34.4-34.4-34.4L36.4,17.2C17.4,17.2,2,32.6,2,51.6v104.7c0,19,15.4,34.4,34.4,34.4
	h104.7c19,0,34.4-15.4,34.4-34.4v-41c-0.1-1.8-0.2-3.6-0.2-5.4C175.4,108.2,175.4,106.4,175.5,104.6z M135.1,168.3
	c-12.1,8.4-26.8,12.6-44,12.6c-24.7,0-47.5-8.9-68.5-26.7L45,131.5c13.8,14.9,29.8,22.3,47.9,22.3c6.9,0,13.3-1.5,19.2-4.4
	c7.4-3.5,11-8.4,11-14.7c0-9.2-6.7-15-20.1-17.5l-18.5-3.5c-16.5-3.1-28.8-7.1-36.7-11.9C35.9,94.5,29.9,84,29.9,70.4
	c0-15.5,6.3-27.8,18.8-37.1c11.1-8.4,24.7-12.6,40.8-12.6c20.5,0,40.6,7,60.3,21l-18.6,22.9c-13.4-11.3-27.1-17-41-17
	c-6.7,0-12.8,1.5-18.3,4.4c-6.5,3.6-9.8,8.5-9.8,14.8c0,8.2,6.7,13.5,20.1,16l33,6.3c26.8,5,40.2,18.5,40.2,40.5
	C155.5,146,148.7,158.8,135.1,168.3z"/>
<path class="st1" d="M286.6,62.3c-5.2-7.5-11.7-13.2-19.4-17.1c-7.7-3.9-16.1-5.9-25.3-5.9c-9.8,0-18.8,1.9-27,5.6
	c-8.2,3.7-15.7,9.5-22.4,17.3c-4.2,4.8-7.6,9.7-10,14.6c-2.5,4.9-4.3,10.2-5.4,15.8c-0.8,3.9-1.3,7.9-1.5,11.9v10.8
	c1,16.7,6.4,31,16.5,43c6,7.1,13.2,12.6,21.6,16.5c8.4,3.9,17.5,5.9,27.4,5.9c8.4,0,16.9-2,25.3-6.1s15-9.5,19.9-16.3h0.5v18H316
	v-133h-29.4V62.3z M280.7,130.2c-3.2,6.1-7.8,10.8-13.7,14.3c-5.9,3.5-12.6,5.2-20.1,5.2c-10.8,0-20-3.7-27.7-11.1
	c-7.7-7.4-11.6-16.5-11.6-27.3c0-11.8,3.7-21.5,11.2-29.2c7.4-7.7,17-11.5,28.6-11.5c5.5,0,10.7,1,15.4,3c4.8,2,8.8,4.7,12.2,8.3
	c3.4,3.5,6,7.7,7.8,12.5c1.9,4.8,2.8,10,2.8,15.6C285.5,117.3,283.9,124.1,280.7,130.2z"/>
<path class="st1" d="M456.1,74.7c-2.9-5.4-6.2-10.1-10-13.9c-6.6-7.6-13.8-13.1-21.6-16.5c-7.8-3.4-16.7-5.1-26.7-5.1
	c-18.8,0-33,7.2-42.7,21.6h-0.6V43.5h-29.2v177.4h31.9v-58.8h0.5c9.8,12.5,23.1,18.8,40.1,18.8c9.4,0,18.2-1.9,26.4-5.6
	c8.2-3.7,15.4-9,21.5-15.6c6.1-6.7,10.7-14.3,13.9-22.8c3.2-8.5,4.8-17.4,4.8-26.7c0-6.1-0.7-12.2-2.1-18.2
	C461.1,85.9,459,80.2,456.1,74.7z M427.6,129.9c-3.4,6.1-8.1,10.9-14.2,14.5s-12.8,5.3-20.1,5.3c-4.3,0-8.7-0.9-13.2-2.7
	s-8.6-4.3-12.2-7.4c-8.3-7.4-12.4-17.3-12.4-29.5c0-7.2,1.7-13.8,5.1-19.9s8.1-10.9,14-14.4s12.6-5.3,19.9-5.3
	c7.1,0,13.6,1.8,19.4,5.5c5.9,3.6,10.5,8.5,13.8,14.6s5,12.5,5,19.3C432.7,117.1,431,123.8,427.6,129.9z"/>
<path class="st1" d="M608.8,83c-3.5-8.6-8.4-16.1-14.8-22.7c-6.4-6.6-13.9-11.7-22.3-15.4c-8.5-3.7-17.6-5.6-27.3-5.6
	c-10,0-19.3,1.8-28,5.4c-8.7,3.6-16.3,8.7-22.9,15.1s-11.7,14-15.4,22.6c-3.7,8.6-5.6,17.9-5.6,27.8c0,12.6,3.2,24.3,9.6,35.2
	s15,19.5,25.8,25.8c10.8,6.4,22.5,9.5,35.1,9.5c9.5,0,18.6-1.8,27.3-5.3c8.6-3.6,16.3-8.7,23-15.3s11.8-14.2,15.4-22.7
	c3.6-8.5,5.4-17.6,5.4-27.2C614.1,100.6,612.3,91.5,608.8,83z M576.9,130.1c-3.4,6.1-8,10.9-13.9,14.4s-12.6,5.2-20,5.2
	c-7,0-13.5-1.8-19.4-5.3s-10.5-8.3-13.9-14.5c-3.4-6.1-5.1-12.7-5.1-19.6c0-11,3.7-20.2,11-27.7c3.4-3.7,7.7-6.7,12.7-8.9
	c5-2.2,9.9-3.3,14.7-3.3c7.1,0,13.6,1.8,19.7,5.3c6,3.6,10.7,8.4,14.2,14.6c3.4,6.2,5.1,12.8,5.1,19.9
	C581.9,117.4,580.3,124,576.9,130.1z"/>
<path class="st2" d="M596.3,209.9c0,0,0,0.1-0.1,0.2c-0.2,0.1-0.3,0.3-0.5,0.4c-0.2,0.2-0.4,0.4-0.6,0.5l0.1-0.1
	c0.1-0.1,0.3-0.1,0.4,0c0.2-0.3,0.4-0.5,0.7-0.7c0.1-0.1,0.2-0.3,0.3-0.4l0,0c0,0,0,0-0.1,0C596.4,209.9,596.3,209.9,596.3,209.9z"
	/>
<path class="st3" d="M274.9,81.7c-3.4-3.5-7.4-6.3-12.2-8.3c-4.8-2-9.9-3-15.4-3c-11.6,0-21.2,3.8-28.6,11.5
	c-7.4,7.7-11.2,17.4-11.2,29.2c0,10.8,3.9,19.9,11.6,27.3c7.7,7.4,17,11.1,27.7,11.1c7.5,0,14.2-1.7,20.1-5.2s10.5-8.2,13.7-14.3
	c3.2-6.1,4.9-12.8,4.9-20.3c0-5.6-0.9-10.8-2.8-15.6C280.8,89.4,278.2,85.2,274.9,81.7z"/>
<path class="st3" d="M562.6,75.8c-6-3.5-12.6-5.3-19.7-5.3c-4.8,0-9.7,1.1-14.7,3.3c-5,2.2-9.3,5.2-12.7,8.9
	c-7.3,7.4-11,16.6-11,27.7c0,7,1.7,13.5,5.1,19.6s8,11,13.9,14.5c5.9,3.5,12.3,5.3,19.4,5.3c7.4,0,14.1-1.7,20-5.2
	s10.6-8.3,13.9-14.4c3.4-6.1,5-12.7,5-19.8s-1.7-13.8-5.1-19.9C573.4,84.2,568.7,79.4,562.6,75.8z"/>
<path class="st3" d="M413.9,75.9c-5.9-3.6-12.3-5.5-19.4-5.5c-7.3,0-14,1.8-19.9,5.3s-10.6,8.3-14,14.4s-5.1,12.7-5.1,19.9
	c0,12.3,4.1,22.1,12.4,29.5c3.6,3.1,7.7,5.6,12.2,7.4c4.5,1.8,8.9,2.7,13.2,2.7c7.3,0,14-1.8,20.1-5.3c6.1-3.6,10.8-8.4,14.2-14.5
	c3.4-6.1,5.1-12.8,5.1-20c0-6.8-1.7-13.2-5-19.3C424.4,84.4,419.8,79.5,413.9,75.9z"/>
<path class="st1" d="M175.4,110.1c0,1.8,0.1,3.6,0.2,5.4v-10.8C175.4,106.4,175.4,108.2,175.4,110.1z"/>
<path class="st2" d="M499.5,206.3c0,0,0,0.1-0.1,0.2c-0.2,0.1-0.3,0.3-0.5,0.4c-0.2,0.2-0.4,0.4-0.6,0.5l0.1-0.1
	c0.1-0.1,0.3-0.1,0.4,0c0.2-0.3,0.4-0.5,0.7-0.7c0.1-0.1,0.2-0.3,0.3-0.4l0,0c0,0,0,0-0.1,0C499.6,206.3,499.5,206.3,499.5,206.3z"
	/>
<g>
	<path class="st1" d="M681.96,152.99c-6.1,5.93-13.59,8.89-22.47,8.89c-9.93,0-17.59-3.93-22.99-11.79h-0.21v31.04h-7.52v-79.61
		h7.52v10.31h0.21c5.58-7.89,13.24-11.84,22.99-11.84c8.77,0,16.21,2.93,22.31,8.79c6.24,5.93,9.37,13.28,9.37,22.05
		C691.17,139.67,688.1,147.06,681.96,152.99z M676.81,113.73c-4.56-4.63-10.33-6.95-17.31-6.95c-6.63,0-12.24,2.4-16.84,7.21
		c-4.53,4.74-6.79,10.42-6.79,17.05c0,6.63,2.26,12.28,6.79,16.94c4.6,4.74,10.21,7.1,16.84,7.1c6.91,0,12.65-2.26,17.21-6.79
		c4.6-4.56,6.89-10.28,6.89-17.15C683.59,124.17,681.33,118.36,676.81,113.73z"/>
	<path class="st1" d="M754.68,160.46v-10.37h-0.21c-5.19,7.86-12.84,11.79-22.94,11.79c-8.87,0-16.36-2.96-22.47-8.89
		c-6.14-5.93-9.21-13.31-9.21-22.15c0-8.77,3.1-16.12,9.31-22.05c6.14-5.86,13.59-8.79,22.36-8.79c10.28,0,17.92,3.95,22.94,11.84
		h0.21v-10.31h7.58v58.93H754.68z M748.37,114c-4.6-4.81-10.21-7.21-16.84-7.21c-6.98,0-12.75,2.32-17.31,6.95
		c-4.56,4.63-6.84,10.44-6.84,17.42c0,6.88,2.3,12.59,6.89,17.15c4.6,4.53,10.35,6.79,17.26,6.79c6.63,0,12.24-2.37,16.84-7.1
		c4.53-4.67,6.79-10.31,6.79-16.94C755.15,124.41,752.89,118.73,748.37,114z"/>
	<path class="st1" d="M791.04,181.13h-7.84l10.21-22.63l-22.94-56.98h8l18.73,46.99l20.05-46.99h7.95L791.04,181.13z"/>
</g>
</svg>
