<?xml version="1.0" encoding="utf-8"?>
<!-- Generator: Adobe Illustrator 21.1.0, SVG Export Plug-In . SVG Version: 6.00 Build 0)  -->
<svg version="1.1" id="Layer_1" xmlns="http://www.w3.org/2000/svg" xmlns:xlink="http://www.w3.org/1999/xlink" x="0px" y="0px"
	 viewBox="0 0 556 161.01" enable-background="new 0 0 556 161.01" xml:space="preserve">
<g>
	<defs>
		<rect id="SVGID_1_" width="835.539" height="161.01"/>
	</defs>
	<clipPath id="SVGID_2_">
		<use xlink:href="#SVGID_1_"  overflow="visible"/>
	</clipPath>
	<path clip-path="url(#SVGID_2_)" fill="#0FD186" d="M114.719,86.706v-44.83c0-12.151-9.85-22-21.998-22L25.818,30.895
		c-12.151,0-21.996,9.85-21.996,22v66.901c0,12.148,9.845,21.998,21.996,21.998H92.72c12.148,0,21.998-9.85,21.998-21.998V93.629
		c-0.066-1.129-0.109-2.271-0.109-3.433C114.609,89.024,114.648,87.86,114.719,86.706 M88.867,127.368
		c-7.754,5.349-17.118,8.023-28.08,8.023c-15.785,0-30.36-5.684-43.73-17.054l14.287-14.442c8.84,9.498,19.043,14.24,30.58,14.24
		c4.427,0,8.521-0.935,12.279-2.803c4.699-2.267,7.038-5.396,7.038-9.405c0-5.864-4.278-9.603-12.843-11.205l-11.829-2.25
		c-10.567-2.012-18.391-4.551-23.468-7.624c-7.616-4.685-11.438-11.369-11.438-20.065c0-9.897,4.021-17.789,12.042-23.676
		c7.09-5.35,15.781-8.024,26.074-8.024c13.106,0,25.945,4.486,38.521,13.441L86.422,61.167C77.833,53.944,69.1,50.335,60.248,50.335
		c-4.297,0-8.187,0.942-11.674,2.81c-4.162,2.274-6.243,5.412-6.243,9.429c0,5.217,4.272,8.623,12.842,10.236l21.053,4.007
		c17.126,3.205,25.685,11.838,25.685,25.879C101.91,113.13,97.561,121.349,88.867,127.368"/>
	<path clip-path="url(#SVGID_2_)" fill="#0089FF" d="M185.653,59.653c-3.346-4.789-7.474-8.432-12.393-10.93
		c-4.913-2.495-10.29-3.741-16.131-3.741c-6.238,0-11.992,1.197-17.257,3.592c-5.265,2.394-10.042,6.091-14.332,11.079
		c-2.697,3.096-4.829,6.201-6.401,9.321c-1.571,3.12-2.724,6.489-3.443,10.105c-0.5,2.5-0.823,5.043-0.978,7.626v6.924
		c0.614,10.647,4.117,19.812,10.522,27.483c3.843,4.541,8.433,8.059,13.773,10.554c5.339,2.495,11.181,3.741,17.519,3.741
		c5.39,0,10.765-1.299,16.133-3.891c5.362-2.595,9.592-6.065,12.686-10.404h0.302v11.527h18.788V47.676h-18.788V59.653z
		 M181.875,103.033c-2.063,3.866-4.996,6.913-8.783,9.131c-3.787,2.226-8.072,3.333-12.854,3.333
		c-6.882,0-12.785-2.369-17.719-7.112c-4.934-4.739-7.399-10.554-7.399-17.44c0-7.535,2.382-13.759,7.14-18.676
		c4.759-4.914,10.851-7.373,18.272-7.373c3.541,0,6.831,0.636,9.87,1.91c3.038,1.273,5.633,3.03,7.773,5.275
		c2.145,2.247,3.811,4.903,5.008,7.975c1.193,3.069,1.795,6.399,1.795,9.99C184.979,94.837,183.941,99.167,181.875,103.033"/>
	<path clip-path="url(#SVGID_2_)" fill="#0089FF" d="M114.609,90.196c0,1.162,0.043,2.304,0.109,3.433v-6.924
		C114.648,87.86,114.609,89.024,114.609,90.196"/>
	<path clip-path="url(#SVGID_2_)" fill="#0089FF" d="M293.96,67.624c-1.843-3.466-3.967-6.423-6.361-8.869
		c-4.243-4.841-8.846-8.348-13.812-10.52c-4.966-2.17-10.64-3.253-17.028-3.253c-11.98,0-21.061,4.591-27.247,13.773h-0.377v-11.08
		h-18.639V161.01h20.361v-37.579h0.299c6.24,7.987,14.771,11.978,25.603,11.978c5.988,0,11.61-1.197,16.877-3.593
		c5.267-2.394,9.846-5.727,13.739-9.993s6.86-9.119,8.908-14.56c2.045-5.438,3.069-11.128,3.069-17.065
		c0-3.896-0.438-7.765-1.31-11.604C297.169,74.749,295.81,71.093,293.96,67.624 M275.734,102.845
		c-2.17,3.896-5.189,6.978-9.06,9.245c-3.867,2.274-8.146,3.406-12.838,3.406c-2.745,0-5.565-0.571-8.46-1.722
		c-2.891-1.148-5.49-2.719-7.785-4.715c-5.288-4.74-7.934-11.027-7.934-18.863c0-4.594,1.087-8.834,3.255-12.729
		c2.171-3.891,5.157-6.963,8.949-9.208c3.791-2.245,8.034-3.368,12.724-3.368c4.542,0,8.685,1.159,12.425,3.482
		c3.745,2.318,6.676,5.425,8.8,9.319c2.119,3.893,3.179,8.01,3.179,12.349C278.989,94.687,277.905,98.955,275.734,102.845"/>
	<path clip-path="url(#SVGID_2_)" fill="#0089FF" d="M391.53,72.868c-2.228-5.466-5.386-10.295-9.48-14.486
		c-4.096-4.195-8.853-7.474-14.27-9.843c-5.422-2.37-11.23-3.556-17.422-3.556c-6.392,0-12.362,1.159-17.903,3.48
		c-5.543,2.32-10.414,5.54-14.611,9.656c-4.192,4.117-7.478,8.935-9.852,14.447c-2.371,5.515-3.557,11.44-3.557,17.781
		c0,8.034,2.031,15.521,6.105,22.457c4.069,6.938,9.561,12.438,16.479,16.508c6.921,4.064,14.396,6.099,22.439,6.099
		c6.094,0,11.896-1.136,17.42-3.404c5.52-2.27,10.412-5.528,14.68-9.77c4.273-4.241,7.559-9.082,9.857-14.521
		c2.297-5.441,3.446-11.23,3.446-17.366C394.864,84.156,393.749,78.329,391.53,72.868 M371.138,102.995
		c-2.145,3.893-5.108,6.952-8.897,9.169c-3.786,2.226-8.043,3.333-12.778,3.333c-4.484,0-8.611-1.124-12.369-3.369
		c-3.764-2.244-6.728-5.324-8.895-9.245c-2.168-3.918-3.252-8.098-3.252-12.538c0-7.038,2.345-12.926,7.024-17.667
		c2.195-2.395,4.899-4.291,8.109-5.687c3.215-1.398,6.344-2.097,9.383-2.097c4.533,0,8.719,1.137,12.559,3.404
		c3.839,2.274,6.85,5.381,9.041,9.324c2.193,3.941,3.287,8.185,3.287,12.726C374.347,94.888,373.282,99.1,371.138,102.995"/>
</g>
<g>
	<path fill="#0089FF" d="M430.59,130.386c-3.942,3.965-8.659,5.947-14.15,5.947c-5.4,0-10.072-1.959-14.014-5.879
		c-3.965-3.919-5.947-8.567-5.947-13.945c0-5.56,1.937-10.333,5.811-14.321c3.896-4.033,8.613-6.05,14.15-6.05
		c5.445,0,10.151,1.982,14.116,5.947s5.947,8.682,5.947,14.15C436.503,121.728,434.531,126.444,430.59,130.386z M427.206,105.161
		c-2.963-3.076-6.528-4.614-10.698-4.614c-4.284,0-7.896,1.596-10.835,4.785c-2.871,3.1-4.307,6.802-4.307,11.108
		c0,4.193,1.47,7.816,4.409,10.869c2.962,3.076,6.539,4.614,10.732,4.614c4.329,0,7.952-1.572,10.869-4.717
		c2.825-3.076,4.238-6.802,4.238-11.177C431.615,111.838,430.146,108.215,427.206,105.161z"/>
	<path fill="#0089FF" d="M493.747,135.41v-22.183c0-3.714-0.786-6.676-2.358-8.887c-1.823-2.529-4.512-3.794-8.066-3.794
		s-6.232,1.265-8.032,3.794c-1.596,2.211-2.393,5.173-2.393,8.887v22.183h-4.888v-22.183c0-3.714-0.798-6.676-2.393-8.887
		c-1.801-2.529-4.478-3.794-8.032-3.794c-3.578,0-6.267,1.265-8.066,3.794c-1.596,2.211-2.393,5.173-2.393,8.887v22.183h-4.888
		V97.129h4.888v4.409c2.278-3.6,5.765-5.4,10.459-5.4c5.833,0,10.117,2.45,12.852,7.349c3.076-4.898,7.371-7.349,12.886-7.349
		c4.785,0,8.567,1.584,11.348,4.751c2.666,3.008,3.999,6.928,3.999,11.758v22.764H493.747z"/>
	<path fill="#0089FF" d="M534.858,135.41v-21.055c0-2.051-0.273-3.941-0.82-5.674c-0.615-2.027-1.562-3.646-2.837-4.854
		c-2.324-2.188-5.093-3.281-8.306-3.281c-3.236,0-6.016,1.094-8.34,3.281c-1.254,1.186-2.188,2.758-2.803,4.717
		c-0.524,1.687-0.786,3.498-0.786,5.435v21.431h-4.888V97.129h4.888v4.888h0.137c2.529-3.919,6.46-5.879,11.792-5.879
		c5.354,0,9.536,1.709,12.544,5.127c2.871,3.281,4.307,7.646,4.307,13.091v21.055H534.858z"/>
	<path fill="#0089FF" d="M547.02,92.446v-8.853h4.888v8.853H547.02z M547.02,135.41V97.129h4.888v38.281H547.02z"/>
</g>
</svg>
